<svg xmlns="http://www.w3.org/2000/svg" xmlns:xlink="http://www.w3.org/1999/xlink" width="559" zoomAndPan="magnify" viewBox="0 0 419.25 595.499987" height="794" preserveAspectRatio="xMidYMid meet" version="1.2"><defs><clipPath id="4fc35da3f9"><path d="M 83.753906 160.738281 L 335 160.738281 L 335 434 L 83.753906 434 Z M 83.753906 160.738281 "/></clipPath></defs><g id="5e51791ef4"><g clip-rule="nonzero" clip-path="url(#4fc35da3f9)"><path style=" stroke:none;fill-rule:nonzero;fill:#255a71;fill-opacity:1;" d="M 334.972656 409.324219 L 334.972656 406.566406 C 334.972656 389.617188 331.648438 373.167969 325.09375 357.671875 C 318.769531 342.714844 309.714844 329.285156 298.183594 317.753906 C 286.65625 306.222656 273.222656 297.171875 258.265625 290.84375 C 257.28125 290.425781 256.292969 290.027344 255.296875 289.636719 C 257.179688 288.09375 258.992188 286.457031 260.726562 284.722656 C 267.390625 278.058594 272.628906 270.292969 276.285156 261.640625 C 280.078125 252.675781 282 243.164062 282 233.367188 C 282 223.570312 280.078125 214.054688 276.285156 205.09375 C 272.628906 196.441406 267.390625 188.675781 260.726562 182.011719 C 254.0625 175.34375 246.296875 170.109375 237.648438 166.453125 C 228.683594 162.660156 219.171875 160.738281 209.371094 160.738281 C 199.574219 160.738281 190.0625 162.660156 181.097656 166.453125 C 172.449219 170.109375 164.683594 175.34375 158.015625 182.011719 C 151.351562 188.675781 146.117188 196.441406 142.457031 205.09375 C 138.667969 214.054688 136.746094 223.570312 136.746094 233.367188 C 136.746094 243.164062 138.667969 252.675781 142.457031 261.640625 C 146.117188 270.292969 151.351562 278.054688 158.015625 284.722656 C 159.753906 286.457031 161.566406 288.09375 163.449219 289.632812 C 162.453125 290.027344 161.460938 290.429688 160.480469 290.84375 C 145.519531 297.171875 132.089844 306.222656 120.5625 317.753906 C 109.03125 329.285156 99.976562 342.714844 93.652344 357.671875 C 87.097656 373.167969 83.773438 389.617188 83.773438 406.566406 L 83.773438 409.324219 C 83.773438 422.214844 93.667969 432.839844 106.261719 434.003906 L 314.191406 433.785156 L 314.265625 433.777344 C 316.429688 433.554688 318.527344 432.910156 320.445312 431.886719 C 329.003906 427.976562 334.972656 419.335938 334.972656 409.324219 Z M 155.84375 255.980469 C 152.8125 248.816406 151.277344 241.210938 151.277344 233.367188 C 151.277344 225.523438 152.8125 217.914062 155.84375 210.753906 C 158.769531 203.835938 162.957031 197.621094 168.292969 192.289062 C 173.628906 186.953125 179.839844 182.761719 186.757812 179.835938 C 193.921875 176.808594 201.53125 175.269531 209.371094 175.269531 C 217.214844 175.269531 224.824219 176.808594 231.984375 179.835938 C 238.902344 182.761719 245.117188 186.953125 250.453125 192.289062 C 255.785156 197.621094 259.976562 203.835938 262.902344 210.753906 C 265.929688 217.914062 267.464844 225.523438 267.464844 233.367188 C 267.464844 241.210938 265.929688 248.816406 262.902344 255.980469 C 259.976562 262.898438 255.785156 269.109375 250.453125 274.445312 C 245.117188 279.78125 238.902344 283.96875 231.984375 286.894531 C 224.824219 289.925781 217.214844 291.460938 209.371094 291.460938 C 201.53125 291.460938 193.921875 289.925781 186.757812 286.894531 C 179.839844 283.96875 173.628906 279.78125 168.292969 274.445312 C 162.957031 269.109375 158.769531 262.898438 155.84375 255.980469 Z M 320.4375 409.324219 C 320.4375 414.976562 315.839844 419.578125 310.183594 419.578125 L 108.558594 419.578125 C 102.90625 419.578125 98.304688 414.976562 98.304688 409.324219 L 98.304688 406.566406 C 98.304688 391.570312 101.242188 377.027344 107.035156 363.332031 C 112.628906 350.105469 120.636719 338.230469 130.835938 328.027344 C 141.035156 317.828125 152.914062 309.820312 166.140625 304.226562 C 169.054688 302.992188 172.050781 301.875 175.042969 300.902344 C 176.085938 300.5625 177.148438 300.234375 178.199219 299.925781 C 178.589844 299.8125 178.960938 299.667969 179.316406 299.496094 C 179.90625 299.765625 180.5 300.027344 181.097656 300.28125 C 190.058594 304.070312 199.574219 305.992188 209.371094 305.992188 C 219.167969 305.992188 228.683594 304.070312 237.644531 300.28125 C 238.242188 300.027344 238.835938 299.765625 239.425781 299.496094 C 239.78125 299.667969 240.15625 299.8125 240.546875 299.925781 C 244.613281 301.117188 248.671875 302.5625 252.605469 304.226562 C 265.832031 309.820312 277.707031 317.828125 287.90625 328.027344 C 298.105469 338.230469 306.117188 350.105469 311.710938 363.332031 C 317.5 377.027344 320.4375 391.570312 320.4375 406.5625 Z M 320.4375 409.324219 "/></g></g></svg>